# xmcd
#
# Track frame offsets:
# 150
# 13473
# 31951
# 49504
# 67214
# 88844
# 109063
# 124420
# 143540
# 164543
# 181628
# 200435
# 215792
# 234289
# 249642
# 266029
# 284152
# 299979
# 315177
#
# Disc length: 4451 seconds
#
# Revision: 0
# Processed by: cddbd v1.4PL0 Copyright (c) Steve Scherf et al.
# Submitted via: Axialis_AX_CDPlayer 2.6
#
DISCID=2e116113
DTITLE=Shania Twain - Up!
DYEAR=1900
DGENRE=
TTITLE0=Up!
TTITLE1=I'm Gonna Getcha Good!
TTITLE2=She's Not Just A Pretty Face
TTITLE3=Juanita
TTITLE4=Forever And For Always
TTITLE5=Ain't No Particular Way
TTITLE6=It Only Hurts When I'm Breathing
TTITLE7=Nah!
TTITLE8=(Wanna Get To Know You) That Good!
TTITLE9=C'est la ve
TTITLE10=I'm Jealous
TTITLE11=Ka-ching!
TTITLE12=Thank You Baby (For Making Someday Come So Soon)
TTITLE13=Waiter! Bring Me Water!
TTITLE14=What A Way To Wanna Be!
TTITLE15=I Ain't Goin' Down
TTITLE16=I'm Not In The Mood (To Say No)!
TTITLE17=In My Car (I'll Be The Driver)
TTITLE18=When You Kiss Me
EXTD=Riconvertito da MP3
EXTT0=
EXTT1=
EXTT2=
EXTT3=
EXTT4=
EXTT5=
EXTT6=
EXTT7=
EXTT8=
EXTT9=
EXTT10=
EXTT11=
EXTT12=
EXTT13=
EXTT14=
EXTT15=
EXTT16=
EXTT17=
EXTT18=
PLAYORDER=
